# xmcd CD database file
#
# Track frame offsets:
#	150
#	34525
#	57849
#	78235
#	113070
#	138102
#	162550
#	213936
#	244048
#	268453
#
# Disc length: 3984 seconds
#
# Revision: 8
# Processed by: cddbd v1.5.2PL0 Copyright (c) Steve Scherf et al.
# Submitted via: CDex 1.70beta2
#
DISCID=840f8e0a
DTITLE=Thelonious Monk, 1917-1982 - The Very Best of Thelonious Monk (Rec. May 11,1954-April 3, 1956)
DYEAR=2012
DGENRE=Jazz 1951-1960
TTITLE0=Blue Monk - Thelonious Monk
TTITLE1=Hackensack - Thelonious Monk
TTITLE2=Sophisticated Lady - Duke Ellington
TTITLE3=Bemsha Swing - Denzil Best, Thelonious Monk
TTITLE4=Honeysuckle Rose - Andy Razaf, Thomas Waller
TTITLE5=Ruby, My Dear - Thelonious Monk
TTITLE6=Well, You Needn't - Thelonious Monk
TTITLE7=Trinkle, Tinkle - Thelonious Monk
TTITLE8=Nutty - Thelonious Monk
TTITLE9='Round Midnight - Bernie Hanighen, Thelonious Monk, Cootie Williams 
EXTD=YEAR: 2012
EXTT0=
EXTT1=
EXTT2=
EXTT3=
EXTT4=
EXTT5=
EXTT6=
EXTT7=
EXTT8=
EXTT9=
PLAYORDER=
